<svg xmlns="http://www.w3.org/2000/svg" width="399" height="288" fill="none" viewBox="0 0 399 288"><path fill="#8492A6" d="M247.86 208.206C257.862 208.206 266 200.802 266 191.702V23.6328C266 10.6017 254.347 0 240.023 0H25.9766C11.6531 0 0 10.6017 0 23.6328V191.702C0 200.802 8.13794 208.206 18.1405 208.206H23.8984V232.547H5.19531C2.32594 232.547 0 234.663 0 237.273C0 239.883 2.32594 242 5.19531 242H260.805C263.674 242 266 239.883 266 237.273C266 234.663 263.674 232.547 260.805 232.547H242.102V208.206H247.86ZM10.3906 23.6328C10.3906 15.8141 17.3825 9.45312 25.9766 9.45312H240.023C248.618 9.45312 255.609 15.8141 255.609 23.6328V34.0312H10.9122C10.7361 34.0312 10.5621 34.0398 10.3906 34.0554V23.6328ZM57.1484 232.547H34.2891V190.008H57.1484V232.547ZM115.336 232.547H92.4766V137.747H115.336V232.547ZM173.523 232.547H150.664V177.719H173.523V232.547ZM236.906 121.236H203.656C200.787 121.236 198.461 123.353 198.461 125.963V149.832C198.461 152.442 200.787 154.558 203.656 154.558C206.526 154.558 208.852 152.442 208.852 149.832V130.689H231.711V232.547H208.852V181.618C208.852 179.008 206.526 176.892 203.656 176.892C200.787 176.892 198.461 179.008 198.461 181.618V232.547H183.914V172.992C183.914 170.382 181.588 168.266 178.719 168.266H145.469C142.599 168.266 140.273 170.382 140.273 172.992V232.547H125.727V133.021C125.727 130.411 123.401 128.294 120.531 128.294H87.2812C84.4119 128.294 82.0859 130.411 82.0859 133.021V232.547H67.5391V185.281C67.5391 182.671 65.2131 180.555 62.3438 180.555H29.0938C26.2244 180.555 23.8984 182.671 23.8984 185.281V198.753H18.1405C13.8668 198.753 10.3906 195.59 10.3906 191.702V43.4603C10.5621 43.4759 10.7361 43.4844 10.9122 43.4844H255.609V191.702C255.609 195.59 252.133 198.753 247.86 198.753H242.102V125.963C242.102 123.353 239.776 121.236 236.906 121.236Z"/><path fill="#8492A6" d="M232.75 17.0156H115.37C112.5 17.0156 110.174 19.1322 110.174 21.7422C110.174 24.3522 112.5 26.4688 115.37 26.4688H232.75C235.619 26.4688 237.945 24.3522 237.945 21.7422C237.945 19.1322 235.619 17.0156 232.75 17.0156Z"/><path fill="#8492A6" d="M57.7043 18.4005C56.738 17.5214 55.3976 17.0156 54.0312 17.0156C52.6649 17.0156 51.3245 17.5209 50.3582 18.4005C49.3918 19.2796 48.8359 20.4991 48.8359 21.7422C48.8359 22.9853 49.3918 24.2047 50.3582 25.0834C51.3245 25.963 52.6649 26.4688 54.0312 26.4688C55.3976 26.4688 56.738 25.963 57.7043 25.0834C58.6707 24.2047 59.2266 22.9853 59.2266 21.7422C59.2266 20.4991 58.6707 19.2796 57.7043 18.4005Z"/><path fill="#8492A6" d="M36.9231 18.4005C35.9568 17.5214 34.6164 17.0156 33.25 17.0156C31.8836 17.0156 30.5432 17.5209 29.5769 18.4005C28.6106 19.2796 28.0547 20.4991 28.0547 21.7422C28.0547 22.9853 28.6106 24.2047 29.5769 25.0834C30.5432 25.963 31.8836 26.4688 33.25 26.4688C34.6164 26.4688 35.9568 25.963 36.9231 25.0834C37.8894 24.2047 38.4453 22.9853 38.4453 21.7422C38.4453 20.4991 37.8894 19.2796 36.9231 18.4005Z"/><path fill="#8492A6" d="M78.4856 18.4005C77.5193 17.5214 76.1841 17.0156 74.8125 17.0156C73.4461 17.0156 72.1057 17.5209 71.1394 18.4005C70.1731 19.2796 69.6172 20.4991 69.6172 21.7422C69.6172 22.9853 70.1731 24.2047 71.1394 25.0834C72.1057 25.963 73.4461 26.4688 74.8125 26.4688C76.1789 26.4688 77.5193 25.963 78.4856 25.0834C79.4519 24.2047 80.0078 22.9853 80.0078 21.7422C80.0078 20.4991 79.4519 19.2796 78.4856 18.4005Z"/><path fill="#8492A6" d="M207.329 163.336C206.363 162.452 205.023 161.951 203.656 161.951C202.29 161.951 200.949 162.452 199.983 163.336C199.017 164.215 198.461 165.434 198.461 166.678C198.461 167.921 199.017 169.14 199.983 170.019C200.949 170.898 202.29 171.404 203.656 171.404C205.023 171.404 206.363 170.898 207.329 170.019C208.296 169.14 208.852 167.921 208.852 166.678C208.852 165.43 208.296 164.215 207.329 163.336Z"/><path fill="#8492A6" d="M220.281 64.2524C209.968 64.2524 201.578 71.8853 201.578 81.268C201.578 84.9949 202.906 88.4434 205.148 91.2496L170.638 122.646C167.96 121.297 164.883 120.527 161.611 120.527C158.663 120.527 155.873 121.153 153.39 122.263L117.356 89.4804C118.838 87.0439 119.685 84.2448 119.685 81.268C119.685 71.8853 111.295 64.2524 100.982 64.2524C90.6686 64.2524 82.2787 71.8853 82.2787 81.268C82.2787 84.5473 83.3063 87.6111 85.08 90.2116L54.4001 118.123C51.7219 116.774 48.6453 116.004 45.3738 116.004C35.0606 116.004 26.6707 123.637 26.6707 133.02C26.6707 142.402 35.0606 150.035 45.3738 150.035C55.687 150.035 64.0769 142.402 64.0769 133.02C64.0769 130.043 63.2301 127.244 61.7478 124.807L92.794 96.5622C95.2685 97.6631 98.047 98.2832 100.982 98.2832C104.253 98.2832 107.33 97.5128 110.008 96.1643L145.69 128.626C143.928 131.221 142.908 134.274 142.908 137.542C142.908 146.924 151.298 154.557 161.611 154.557C171.924 154.557 180.314 146.924 180.314 137.542C180.314 134.565 179.467 131.766 177.985 129.329L213.42 97.0916C215.546 97.8583 217.86 98.2837 220.281 98.2837C230.594 98.2837 238.984 90.6507 238.984 81.268C238.984 71.8853 230.594 64.2524 220.281 64.2524ZM45.3743 140.583C40.791 140.583 37.0618 137.19 37.0618 133.021C37.0618 128.851 40.791 125.458 45.3743 125.458C49.9576 125.458 53.6868 128.851 53.6868 133.021C53.6868 137.19 49.9576 140.583 45.3743 140.583ZM100.982 88.8305C96.399 88.8305 92.6698 85.4378 92.6698 81.268C92.6698 77.0983 96.399 73.7055 100.982 73.7055C105.566 73.7055 109.295 77.0983 109.295 81.268C109.295 85.4378 105.566 88.8305 100.982 88.8305ZM161.612 145.105C157.028 145.105 153.299 141.712 153.299 137.542C153.299 133.373 157.028 129.98 161.612 129.98C166.195 129.98 169.924 133.373 169.924 137.542C169.924 141.712 166.195 145.105 161.612 145.105ZM220.281 88.8305C215.698 88.8305 211.969 85.4378 211.969 81.268C211.969 77.0983 215.698 73.7055 220.281 73.7055C224.865 73.7055 228.594 77.0983 228.594 81.268C228.594 85.4378 224.865 88.8305 220.281 88.8305Z"/><path fill="#8492A6" d="M77.062 60.9495C76.0905 60.0703 74.7553 59.5641 73.3889 59.5641C72.0174 59.5641 70.677 60.0699 69.7106 60.9495C68.7443 61.8281 68.1936 63.0476 68.1936 64.2907C68.1936 65.5338 68.7443 66.7532 69.7106 67.6324C70.6822 68.5115 72.0174 69.0172 73.3889 69.0172C74.7553 69.0172 76.0905 68.512 77.062 67.6324C78.0283 66.7532 78.5842 65.5338 78.5842 64.2907C78.5842 63.0476 78.0283 61.8281 77.062 60.9495Z"/><path fill="#8492A6" d="M54.0312 59.5646H29.0938C26.2244 59.5646 23.8984 61.6812 23.8984 64.2912C23.8984 66.9012 26.2244 69.0177 29.0938 69.0177H54.0312C56.9006 69.0177 59.2266 66.9012 59.2266 64.2912C59.2266 61.6812 56.9006 59.5646 54.0312 59.5646Z"/><path fill="#8492A6" d="M54.0312 82.2521H29.0938C26.2244 82.2521 23.8984 84.3687 23.8984 86.9787C23.8984 89.5887 26.2244 91.7053 29.0938 91.7053H54.0312C56.9006 91.7053 59.2266 89.5887 59.2266 86.9787C59.2266 84.3687 56.9006 82.2521 54.0312 82.2521Z"/><path fill="#8492A6" fill-opacity=".4" d="M380.86 254.206C390.862 254.206 399 246.802 399 237.702V69.6328C399 56.6017 387.347 46 373.023 46H158.977C144.653 46 133 56.6017 133 69.6328V237.702C133 246.802 141.138 254.206 151.14 254.206H156.898V278.547H138.195C135.326 278.547 133 280.663 133 283.273C133 285.883 135.326 288 138.195 288H393.805C396.674 288 399 285.883 399 283.273C399 280.663 396.674 278.547 393.805 278.547H375.102V254.206H380.86ZM143.391 69.6328C143.391 61.8141 150.382 55.4531 158.977 55.4531H373.023C381.618 55.4531 388.609 61.8141 388.609 69.6328V80.0312H143.912C143.736 80.0312 143.562 80.0398 143.391 80.0554V69.6328ZM190.148 278.547H167.289V236.008H190.148V278.547ZM248.336 278.547H225.477V183.747H248.336V278.547ZM306.523 278.547H283.664V223.719H306.523V278.547ZM369.906 167.236H336.656C333.787 167.236 331.461 169.353 331.461 171.963V195.832C331.461 198.442 333.787 200.558 336.656 200.558C339.526 200.558 341.852 198.442 341.852 195.832V176.689H364.711V278.547H341.852V227.618C341.852 225.008 339.526 222.892 336.656 222.892C333.787 222.892 331.461 225.008 331.461 227.618V278.547H316.914V218.992C316.914 216.382 314.588 214.266 311.719 214.266H278.469C275.599 214.266 273.273 216.382 273.273 218.992V278.547H258.727V179.021C258.727 176.411 256.401 174.294 253.531 174.294H220.281C217.412 174.294 215.086 176.411 215.086 179.021V278.547H200.539V231.281C200.539 228.671 198.213 226.555 195.344 226.555H162.094C159.224 226.555 156.898 228.671 156.898 231.281V244.753H151.14C146.867 244.753 143.391 241.59 143.391 237.702V89.4603C143.562 89.4759 143.736 89.4844 143.912 89.4844H388.609V237.702C388.609 241.59 385.133 244.753 380.86 244.753H375.102V171.963C375.102 169.353 372.776 167.236 369.906 167.236Z"/><path fill="#8492A6" fill-opacity=".4" d="M365.75 63.0156H248.37C245.5 63.0156 243.174 65.1322 243.174 67.7422C243.174 70.3522 245.5 72.4688 248.37 72.4688H365.75C368.619 72.4688 370.945 70.3522 370.945 67.7422C370.945 65.1322 368.619 63.0156 365.75 63.0156Z"/><path fill="#8492A6" fill-opacity=".4" d="M190.704 64.4005C189.738 63.5214 188.398 63.0156 187.031 63.0156C185.665 63.0156 184.324 63.5209 183.358 64.4005C182.392 65.2796 181.836 66.4991 181.836 67.7422C181.836 68.9853 182.392 70.2047 183.358 71.0834C184.324 71.963 185.665 72.4688 187.031 72.4688C188.398 72.4688 189.738 71.963 190.704 71.0834C191.671 70.2047 192.227 68.9853 192.227 67.7422C192.227 66.4991 191.671 65.2796 190.704 64.4005Z"/><path fill="#8492A6" fill-opacity=".4" d="M169.923 64.4005C168.957 63.5214 167.616 63.0156 166.25 63.0156C164.884 63.0156 163.543 63.5209 162.577 64.4005C161.611 65.2796 161.055 66.4991 161.055 67.7422C161.055 68.9853 161.611 70.2047 162.577 71.0834C163.543 71.963 164.884 72.4688 166.25 72.4688C167.616 72.4688 168.957 71.963 169.923 71.0834C170.889 70.2047 171.445 68.9853 171.445 67.7422C171.445 66.4991 170.889 65.2796 169.923 64.4005Z"/><path fill="#8492A6" fill-opacity=".4" d="M211.486 64.4005C210.519 63.5214 209.184 63.0156 207.812 63.0156C206.446 63.0156 205.106 63.5209 204.139 64.4005C203.173 65.2796 202.617 66.4991 202.617 67.7422C202.617 68.9853 203.173 70.2047 204.139 71.0834C205.106 71.963 206.446 72.4688 207.812 72.4688C209.179 72.4688 210.519 71.963 211.486 71.0834C212.452 70.2047 213.008 68.9853 213.008 67.7422C213.008 66.4991 212.452 65.2796 211.486 64.4005Z"/><path fill="#8492A6" fill-opacity=".4" d="M340.329 209.336C339.363 208.452 338.023 207.951 336.656 207.951C335.29 207.951 333.949 208.452 332.983 209.336C332.017 210.215 331.461 211.434 331.461 212.678C331.461 213.921 332.017 215.14 332.983 216.019C333.949 216.898 335.29 217.404 336.656 217.404C338.023 217.404 339.363 216.898 340.329 216.019C341.296 215.14 341.852 213.921 341.852 212.678C341.852 211.43 341.296 210.215 340.329 209.336Z"/><path fill="#8492A6" fill-opacity=".4" d="M353.281 110.252C342.968 110.252 334.578 117.885 334.578 127.268C334.578 130.995 335.906 134.443 338.148 137.25L303.638 168.646C300.96 167.297 297.883 166.527 294.611 166.527C291.663 166.527 288.873 167.153 286.39 168.263L250.356 135.48C251.838 133.044 252.685 130.245 252.685 127.268C252.685 117.885 244.295 110.252 233.982 110.252C223.669 110.252 215.279 117.885 215.279 127.268C215.279 130.547 216.306 133.611 218.08 136.212L187.4 164.123C184.722 162.774 181.645 162.004 178.374 162.004C168.061 162.004 159.671 169.637 159.671 179.02C159.671 188.402 168.061 196.035 178.374 196.035C188.687 196.035 197.077 188.402 197.077 179.02C197.077 176.043 196.23 173.244 194.748 170.807L225.794 142.562C228.269 143.663 231.047 144.283 233.982 144.283C237.253 144.283 240.33 143.513 243.008 142.164L278.69 174.626C276.928 177.221 275.908 180.274 275.908 183.542C275.908 192.924 284.298 200.557 294.611 200.557C304.924 200.557 313.314 192.924 313.314 183.542C313.314 180.565 312.467 177.766 310.985 175.329L346.42 143.092C348.546 143.858 350.86 144.284 353.281 144.284C363.594 144.284 371.984 136.651 371.984 127.268C371.984 117.885 363.594 110.252 353.281 110.252ZM178.374 186.583C173.791 186.583 170.062 183.19 170.062 179.021C170.062 174.851 173.791 171.458 178.374 171.458C182.958 171.458 186.687 174.851 186.687 179.021C186.687 183.19 182.958 186.583 178.374 186.583ZM233.982 134.831C229.399 134.831 225.67 131.438 225.67 127.268C225.67 123.098 229.399 119.706 233.982 119.706C238.566 119.706 242.295 123.098 242.295 127.268C242.295 131.438 238.566 134.831 233.982 134.831ZM294.612 191.105C290.028 191.105 286.299 187.712 286.299 183.542C286.299 179.373 290.028 175.98 294.612 175.98C299.195 175.98 302.924 179.373 302.924 183.542C302.924 187.712 299.195 191.105 294.612 191.105ZM353.281 134.831C348.698 134.831 344.969 131.438 344.969 127.268C344.969 123.098 348.698 119.706 353.281 119.706C357.865 119.706 361.594 123.098 361.594 127.268C361.594 131.438 357.865 134.831 353.281 134.831Z"/><path fill="#8492A6" fill-opacity=".4" d="M210.062 106.949C209.09 106.07 207.755 105.564 206.389 105.564C205.017 105.564 203.677 106.07 202.711 106.949C201.744 107.828 201.194 109.048 201.194 110.291C201.194 111.534 201.744 112.753 202.711 113.632C203.682 114.511 205.017 115.017 206.389 115.017C207.755 115.017 209.09 114.512 210.062 113.632C211.028 112.753 211.584 111.534 211.584 110.291C211.584 109.048 211.028 107.828 210.062 106.949Z"/><path fill="#8492A6" fill-opacity=".4" d="M187.031 105.565H162.094C159.224 105.565 156.898 107.681 156.898 110.291C156.898 112.901 159.224 115.018 162.094 115.018H187.031C189.901 115.018 192.227 112.901 192.227 110.291C192.227 107.681 189.901 105.565 187.031 105.565Z"/><path fill="#8492A6" fill-opacity=".4" d="M187.031 128.252H162.094C159.224 128.252 156.898 130.369 156.898 132.979C156.898 135.589 159.224 137.705 162.094 137.705H187.031C189.901 137.705 192.227 135.589 192.227 132.979C192.227 130.369 189.901 128.252 187.031 128.252Z"/></svg>